<?xml version="1.0" standalone="no"?>
<!DOCTYPE svg PUBLIC "-//W3C//DTD SVG 20010904//EN"
 "http://www.w3.org/TR/2001/REC-SVG-20010904/DTD/svg10.dtd">
<svg version="1.0" xmlns="http://www.w3.org/2000/svg"
 width="104.000000pt" height="104.000000pt" viewBox="0 0 104.000000 104.000000"
 preserveAspectRatio="xMidYMid meet">
<metadata>
Created by potrace 1.13, written by Peter Selinger 2001-2015
</metadata>
<g transform="translate(0.000000,104.000000) scale(0.100000,-0.100000)"
fill="#000000" stroke="none">
<path d="M75 1031 c-74 -33 -96 -133 -41 -190 34 -36 82 -48 128 -32 32 11 33
11 117 -73 l84 -84 -18 -38 c-25 -54 -29 -112 -11 -164 8 -24 14 -45 13 -45
-1 -1 -34 -27 -73 -58 l-71 -57 -32 16 c-45 22 -97 12 -136 -26 -25 -26 -30
-38 -30 -80 0 -43 5 -54 33 -82 28 -28 39 -33 82 -33 43 0 54 5 82 33 30 29
33 38 33 91 l0 59 70 56 c65 51 71 54 90 41 41 -31 72 -39 136 -39 l67 0 26
-54 27 -55 -23 -24 c-18 -19 -23 -36 -23 -74 0 -42 5 -53 33 -81 28 -28 39
-33 82 -33 43 0 54 5 82 33 28 28 33 39 33 82 0 66 -40 110 -107 117 -43 5
-46 8 -72 60 l-27 55 25 23 c13 12 31 37 40 54 16 29 20 31 54 25 48 -9 49 -9
57 -43 3 -15 20 -41 36 -57 25 -24 39 -29 79 -29 43 0 54 5 82 33 28 28 33 39
33 82 0 43 -5 54 -33 82 -28 29 -39 33 -83 33 -45 0 -54 -4 -84 -37 -33 -35
-35 -36 -74 -26 -31 8 -41 15 -41 31 0 44 -26 103 -62 138 -21 20 -38 40 -38
45 0 5 7 27 16 50 14 38 20 42 56 47 28 4 51 16 72 36 26 27 31 39 31 81 0 43
-5 54 -33 82 -28 28 -39 33 -82 33 -43 0 -54 -5 -82 -33 -28 -28 -33 -39 -33
-82 0 -39 5 -54 26 -77 l27 -28 -22 -50 c-22 -49 -23 -49 -63 -47 -26 2 -60
-5 -93 -19 l-52 -22 -84 84 c-84 84 -84 85 -73 117 25 72 -23 150 -97 158 -22
2 -48 0 -59 -5z"/>
</g>
</svg>
